# xmcd
#
# Track frame offsets:
#	150
#	18086
#	32540
#	48610
#	63448
#	76476
#	87666
#	98733
#	109293
#	122139
#	136339
#	147165
#	161970
#	174695
#	188897
#
# Disc length: 2716 seconds
#
# Revision: 2
# Processed by: cddbd v1.5.1PL0 Copyright (c) Steve Scherf et al.
# Submitted via: EasyCDDAExtractor 7.0.5.4
#
DISCID=d20a9a0f
DTITLE=Teodoro and Sampaio - Mulher Chorona II
DYEAR=2003
DGENRE=Country
TTITLE0=Paixão Proibida
TTITLE1=A Gostosona
TTITLE2=Quando a Saudade Aperta
TTITLE3=Tô Querendo Mais
TTITLE4=Vestido de Seda
TTITLE5=Duas Metades
TTITLE6=Rodoviária do Amor
TTITLE7=Vou Beber de Novo
TTITLE8=Cercado de Espinho
TTITLE9=Peão Azarado
TTITLE10=Psiu
TTITLE11=Coração Blindado
TTITLE12=Mulher Carente
TTITLE13=Paixão de Milhão
TTITLE14=Campeão do Milênio
EXTD=
EXTT0=
EXTT1=
EXTT2=
EXTT3=
EXTT4=
EXTT5=
EXTT6=
EXTT7=
EXTT8=
EXTT9=
EXTT10=
EXTT11=
EXTT12=
EXTT13=
EXTT14=
PLAYORDER=
